USFL
nRows=233
nColumns=2
inDegrees=yes
endheader
time	tib_ant_r	
2.86089	 68.909457	
2.89415	 68.920021	
2.92742	 68.941381	
2.96069	 68.965225	
2.99395	 68.958806	
3.02722	 68.955805	
3.06048	 68.962944	
3.09375	 68.965719	
3.12702	 68.964640	
3.16028	 68.972951	
3.19355	 68.977860	
3.22681	 68.980162	
3.26008	 68.969805	
3.29335	 68.955062	
3.32661	 68.938249	
3.35988	 68.936249	
3.39315	 68.938360	
3.42641	 68.946072	
3.45968	 68.926006	
3.49294	 68.894424	
3.52621	 68.890565	
3.55948	 68.920138	
3.59274	 68.989343	
3.62601	 68.954304	
3.65927	 68.935768	
3.69254	 68.971461	
3.72581	 68.985317	
3.75907	 68.997501	
3.79234	 68.998461	
3.8256	 68.996116	
3.85887	 68.970774	
3.89214	 68.951412	
3.9254	 68.970754	
3.95867	 68.985902	
3.99194	 68.983204	
4.0252	 68.963434	
4.05847	 68.939518	
4.09173	 68.898800	
4.125	 68.874768	
4.15827	 68.892184	
4.19153	 68.909120	
4.2248	 68.957856	
4.25806	 68.952807	
4.29133	 68.926490	
4.3246	 68.909163	
4.35786	 68.901454	
4.39113	 68.894350	
4.4244	 68.905483	
4.45766	 68.902105	
4.49093	 68.890146	
4.52419	 68.883574	
4.55746	 68.916245	
4.59073	 68.933642	
4.62399	 68.942652	
4.65726	 68.886458	
4.69052	 68.882589	
4.72379	 68.855871	
4.75706	 68.839888	
4.79032	 68.821906	
4.82359	 68.841604	
4.85685	 68.810147	
4.89012	 68.912555	
4.92339	 68.907690	
4.95665	 69.374130	
4.98992	 69.712981	
5.02319	 63.439792	
5.05645	 63.777289	
5.08972	 63.596878	
5.12298	 63.582343	
5.15625	 63.367760	
5.18952	 62.953331	
5.22278	 50.488612	
5.25605	 50.598503	
5.28931	 50.317444	
5.32258	 50.175271	
5.35585	 50.042376	
5.38911	 49.639684	
5.42238	 49.600331	
5.45565	 49.471829	
5.48891	 49.460596	
5.52218	 49.487199	
5.55544	 49.447854	
5.58871	 49.374904	
5.62198	 49.393561	
5.65524	 49.322016	
5.68851	 49.311819	
5.72177	 49.374052	
5.75504	 49.031925	
5.78831	 49.045479	
5.82157	 49.050527	
5.85484	 49.113806	
5.8881	 49.149722	
5.92137	 49.065387	
5.95464	 48.894962	
5.9879	 48.892764	
6.02117	 48.816638	
6.05444	 48.763371	
6.0877	 48.736713	
6.12097	 48.653681	
6.15423	 48.698126	
6.1875	 48.586395	
6.22077	 48.519987	
6.25403	 48.499497	
6.2873	 48.497533	
6.32056	 48.449014	
6.35383	 48.420772	
6.3871	 48.517116	
6.42036	 48.725894	
6.45363	 48.736128	
6.4869	 48.662240	
6.52016	 48.621938	
6.55343	 48.741007	
6.58669	 48.869007	
6.61996	 48.876363	
6.65323	 48.881962	
6.68649	 48.849129	
6.71976	 48.811116	
6.75302	 48.900008	
6.78629	 48.919909	
6.81956	 48.945164	
6.85282	 48.991194	
6.88609	 48.973552	
6.91935	 48.983498	
6.95262	 48.979557	
6.98589	 49.003972	
7.01915	 48.948162	
7.05242	 48.953951	
7.08569	 48.928246	
7.11895	 48.995420	
7.15222	 49.049222	
7.18548	 49.011992	
7.21875	 48.989493	
7.25202	 48.938690	
7.28528	 48.985910	
7.31855	 48.999278	
7.35181	 48.954366	
7.38508	 48.990749	
7.41835	 48.992002	
7.45161	 48.976378	
7.48488	 48.914480	
7.51815	 48.850846	
7.55141	 48.674652	
7.58468	 48.567826	
7.61794	 48.560334	
7.65121	 48.589247	
7.68448	 48.625305	
7.71774	 48.620899	
7.75101	 48.675802	
7.78427	 48.651439	
7.81754	 48.674864	
7.85081	 48.595033	
7.88407	 48.571913	
7.91734	 48.495037	
7.9506	 48.393899	
7.98387	 48.384964	
8.01714	 48.406092	
8.0504	 48.409594	
8.08367	 48.396151	
8.11694	 48.445291	
8.1502	 48.533954	
8.18347	 48.498355	
8.21673	 48.534463	
8.25	 48.511962	
8.28327	 48.569417	
8.31653	 48.651286	
8.3498	 48.624027	
8.38306	 48.678973	
8.41633	 48.670694	
8.4496	 48.702234	
8.48286	 48.728620	
8.51613	 48.770384	
8.5494	 48.715083	
8.58266	 48.770995	
8.61593	 48.649694	
8.64919	 48.665342	
8.68246	 48.727182	
8.71573	 48.765045	
8.74899	 48.700568	
8.78226	 48.656032	
8.81552	 48.580328	
8.84879	 48.698280	
8.88206	 48.682795	
8.91532	 48.691231	
8.94859	 48.688648	
8.98185	 48.756874	
9.01512	 48.882580	
9.04839	 48.937288	
9.08165	 48.931706	
9.11492	 49.050357	
9.14819	 49.114372	
9.18145	 49.104364	
9.21472	 49.179464	
9.24798	 49.293268	
9.28125	 49.320640	
9.31452	 49.353895	
9.34778	 49.304983	
9.38105	 49.516318	
9.41431	 49.575049	
9.44758	 49.488688	
9.48085	 49.777332	
9.51411	 49.992985	
9.54738	 49.851299	
9.58065	 50.023887	
9.61391	 50.334420	
9.64718	 50.247476	
9.68044	 50.297420	
9.71371	 50.459792	
9.74698	 50.625641	
9.78024	 50.510857	
9.81351	 86.730603	
9.84677	 86.850077	
9.88004	 86.771267	
9.91331	 86.634096	
9.94657	 86.857545	
9.97984	 86.943561	
10.0131	 86.867508	
10.0464	 86.893709	
10.0796	 86.868237	
10.1129	 86.807652	
10.1462	 86.756942	
10.1794	 86.751384	
10.2127	 86.689539	
10.246	 86.600575	
10.2792	 86.565558	
10.3125	 86.677366	
10.3458	 86.812910	
10.379	 86.839926	
10.4123	 86.865054	
10.4456	 86.853967	
10.4788	 86.799768	
10.5121	 86.781169	
10.5454	 86.789456	
10.5786	 86.801572	
